<svg xmlns="http://www.w3.org/2000/svg" viewBox="0 0 480 480">
  <path fill="currentColor" d="M447.469 246.82c-3.492-22.766-22.207-40.126-45.17-41.9l-20.064-1.6a49.516 49.516 0 009.736-29.536c.027-25.597-19.228-47.107-44.672-49.904l-24.696-2.744a42.981 42.981 0 005.368-20.8c.073-20.348-13.988-38.02-33.832-42.52l-26.456-6.112c-13.029-3.001-21.158-15.995-18.157-29.024a24.206 24.206 0 014.693-9.696A8 8 0 00247.971 0h-24c-39.764 0-72 32.235-72 72a72.017 72.017 0 006.992 30.953l-3.368-.376c-33.406-3.734-63.514 20.32-67.248 53.726a60.882 60.882 0 002.192 24.258c-34.039 1.727-60.233 30.721-58.506 64.759 1.264 24.917 17.407 46.621 40.906 55.001h.008l55.4 174.08a8 8 0 007.624 5.6h208a8 8 0 007.624-5.6l54.4-171.08c27.054-4.15 45.623-29.446 41.474-56.501zM141.819 464L90.907 304h62.08l21.816 160h-32.984zm90.152 0h-41.016l-21.816-160h62.832v160zm16 0V304h62.4l-29.072 160h-33.328zm90.152 0h-40.552l29.088-160h62.4l-50.936 160zm93.575-206.766c-1.467 17.338-15.928 30.687-33.327 30.766H93.739c-25.266-.026-45.742-20.502-45.768-45.768a45.261 45.261 0 0114.72-33.624 45.209 45.209 0 0130.92-12.136c1.248 0 2.512.048 3.776.152l4.8.376a7.88 7.88 0 007.376-3.672 8.001 8.001 0 00.232-8.232c-12.162-21.593-4.516-48.956 17.077-61.118a44.866 44.866 0 0126.995-5.498l19.904 2.208a7.847 7.847 0 007.92-4.152 7.999 7.999 0 00-.872-8.896c-19.683-23.856-16.301-59.151 7.555-78.835A56 56 0 01223.971 16h10.784c-6.678 21.211 5.104 43.819 26.315 50.497.996.314 2.004.588 3.021.823l26.448 6.104c14.709 3.22 24.023 17.754 20.803 32.464a27.265 27.265 0 01-7.419 13.512L200.539 112l-1.136 16 111.88 8 34.248 3.8c17.328 1.909 30.443 16.552 30.44 33.984a33.768 33.768 0 01-14.848 27.936L128.579 184l-1.216 16 244.688 18.6 29 2.32c18.49 1.565 32.211 17.823 30.647 36.314z"/>
  <path fill="currentColor" d="M183.971 56h16v16h-16zM231.971 80h16v16h-16zM255.971 144h16v16h-16zM135.971 152h16v16h-16zM327.971 168h16v16h-16zM79.971 224h16v16h-16zM191.971 224h16v16h-16zM119.971 256h16v16h-16zM271.971 248h16v16h-16zM375.971 232h16v16h-16z"/>
</svg>