<svg xmlns="http://www.w3.org/2000/svg" viewBox="0 0 512 512">
  <path fill="currentColor" d="M256 0C114.615 0 0 114.615 0 256s114.615 256 256 256 256-114.615 256-256C511.84 114.682 397.318.16 256 0zm0 494.933c-128.563-.16-233.999-101.924-238.717-230.4h16.083a34.258 34.258 0 0130.504 18.821l13 26.088c10.46 20.927 35.904 29.413 56.831 18.953a42.364 42.364 0 0023.173-33.295l2.388-21.258a19.991 19.991 0 0111.502-15.906c1.013 47.061 39.985 84.39 87.046 83.377 35.484-.764 66.781-23.438 78.563-56.918l1.785.893a51.23 51.23 0 0055.675-6.462l7.3-6.079a34.312 34.312 0 0138.421-3.617l51.233 28.463c.134.075.281.099.418.166C470.836 411.733 371.781 494.772 256 494.933zM187.733 256c.043-37.685 30.582-68.224 68.267-68.267 37.703 0 68.267 30.564 68.267 68.267S293.703 324.267 256 324.267 187.733 293.703 187.733 256zm260.113-1.787c-18.507-10.188-41.36-8.038-57.642 5.425l-7.296 6.075a34.144 34.144 0 01-37.117 4.308l-5.306-2.653c6.309-46.672-26.412-89.622-73.085-95.931-44.744-6.048-86.448 23.829-95.114 68.14-16.021 3.026-28.188 16.159-29.983 32.364l-2.392 21.279c-1.552 13.899-14.078 23.908-27.977 22.356a25.321 25.321 0 01-19.819-13.802l-12.965-26.02a51.447 51.447 0 00-45.783-28.288H17.283c4.695-131.858 115.393-234.943 247.25-230.249C393.097 21.796 494.951 127.355 494.933 256c0 8.003-.411 15.911-1.184 23.714l-45.903-25.501z"/>
  <path fill="currentColor" d="M227.9 49.434l-12.8-12.8A8.532 8.532 0 00203.034 48.7l12.8 12.8A8.532 8.532 0 00227.9 49.434zM300.433 53.7l-12.8-12.8a8.532 8.532 0 00-12.066 12.066l12.8 12.8A8.532 8.532 0 00300.433 53.7zM355.791 62.234a8.532 8.532 0 00-11.957 0l-12.8 12.8A8.532 8.532 0 10343.1 87.1l12.8-12.8a8.532 8.532 0 00-.109-12.066zM355.9 139.034l-12.8-12.8a8.533 8.533 0 00-12.066 12.066l12.8 12.8a8.532 8.532 0 0012.066-12.066zM394.191 100.634a8.532 8.532 0 00-11.957 0l-12.8 12.8A8.532 8.532 0 10381.5 125.5l12.8-12.8a8.532 8.532 0 00-.109-12.066zM445.5 139.034l-12.8-12.8a8.532 8.532 0 00-12.066 12.066l12.8 12.8a8.532 8.532 0 0012.066-12.066zM407.1 177.434l-12.8-12.8a8.532 8.532 0 00-12.066 12.066l12.8 12.8a8.532 8.532 0 0012.066-12.066zM471.1 190.234l-12.8-12.8a8.532 8.532 0 00-12.066 12.066l12.8 12.8a8.532 8.532 0 0012.066-12.066zM176.591 49.434a8.532 8.532 0 00-11.957 0l-12.8 12.8a8.533 8.533 0 006.033 14.566 8.502 8.502 0 006.033-2.5l12.8-12.8a8.532 8.532 0 00-.109-12.066zM202.3 113.434l-12.8-12.8a8.532 8.532 0 00-12.066 12.066l12.8 12.8a8.532 8.532 0 0012.066-12.066zM142.566 100.634l-12.8-12.8A8.532 8.532 0 00117.7 99.9l12.8 12.8a8.533 8.533 0 0012.066-12.066zM146.836 147.569l-.003-.003-12.8-12.8a8.532 8.532 0 00-12.066 12.067l12.8 12.8a8.531 8.531 0 0012.064.003l.003-.003a8.531 8.531 0 00.002-12.064zM86.99 126.234a8.532 8.532 0 00-11.957 0l-12.8 12.8A8.532 8.532 0 1074.299 151.1l12.8-12.8a8.53 8.53 0 00-.109-12.066zM87.1 203.034l-12.8-12.8A8.532 8.532 0 0062.234 202.3l12.8 12.8A8.532 8.532 0 0087.1 203.034zM163.792 177.434a8.533 8.533 0 00-11.958 0l-12.8 12.8a8.532 8.532 0 1011.958 12.174l.108-.108 12.8-12.8a8.532 8.532 0 00-.108-12.066zM253.502 75.036l-.003-.003a8.531 8.531 0 00-12.064-.003l-.003.003-12.8 12.8a8.532 8.532 0 1011.99 12.142l.076-.076 12.8-12.8a8.527 8.527 0 00.004-12.063zM304.591 87.834a8.532 8.532 0 00-11.957 0l-12.8 12.8A8.532 8.532 0 10291.9 112.7l12.8-12.8a8.532 8.532 0 00-.109-12.066zM279.1 139.034l-12.8-12.8a8.533 8.533 0 00-12.066 12.066l12.8 12.8a8.532 8.532 0 0012.066-12.066z"/>
</svg>