<svg xmlns="http://www.w3.org/2000/svg" viewBox="0 0 511.999 511.999">
  <path fill="currentColor" d="M327.974 221.045a7.514 7.514 0 100-15.028c-7.565 0-13.72-6.155-13.72-13.72 0-7.566 6.155-13.721 13.72-13.721a7.514 7.514 0 100-15.028c-15.852 0-28.749 12.897-28.749 28.75 0 8.402 3.624 15.973 9.39 21.234-5.766 5.261-9.39 12.832-9.39 21.234s3.624 15.974 9.39 21.235c-5.766 5.261-9.39 12.832-9.39 21.235 0 8.402 3.624 15.974 9.39 21.235-5.766 5.258-9.39 12.829-9.39 21.231 0 15.852 12.896 28.75 28.749 28.75a7.514 7.514 0 100-15.028c-7.565 0-13.72-6.155-13.72-13.721 0-7.565 6.155-13.72 13.72-13.72a7.514 7.514 0 100-15.028c-7.565 0-13.72-6.155-13.72-13.721 0-7.565 6.155-13.72 13.72-13.72a7.514 7.514 0 100-15.028c-7.565 0-13.72-6.155-13.72-13.721 0-7.565 6.155-13.72 13.72-13.72zM267.628 242.279a7.514 7.514 0 100-15.028c-7.566 0-13.721-6.155-13.721-13.72s6.155-13.72 13.721-13.72a7.514 7.514 0 100-15.028c-15.852 0-28.749 12.896-28.749 28.749 0 8.402 3.624 15.973 9.39 21.235-5.766 5.261-9.39 12.833-9.39 21.235s3.624 15.973 9.39 21.235c-5.766 5.257-9.39 12.829-9.39 21.231 0 15.852 12.897 28.749 28.749 28.749a7.514 7.514 0 100-15.028c-7.566 0-13.721-6.155-13.721-13.72 0-7.566 6.155-13.721 13.721-13.721a7.514 7.514 0 100-15.028c-7.566 0-13.721-6.155-13.721-13.72 0-7.566 6.155-13.721 13.721-13.721zM207.282 263.514a7.514 7.514 0 100-15.028c-7.566 0-13.721-6.155-13.721-13.721 0-7.565 6.155-13.72 13.721-13.72a7.514 7.514 0 100-15.028c-15.852 0-28.749 12.896-28.749 28.749 0 8.402 3.624 15.974 9.39 21.235-5.766 5.258-9.39 12.829-9.39 21.232 0 15.852 12.897 28.75 28.749 28.75a7.514 7.514 0 100-15.028c-7.566 0-13.721-6.155-13.721-13.721 0-7.565 6.155-13.72 13.721-13.72z"/>
  <path fill="currentColor" d="M511.673 272.939a10.206 10.206 0 00-4.736-6.236c-.827-.478-1.613-.939-2.36-1.383-5.228-3.104-8.547-5.368-10.609-6.91 1.68-3.103 5.085-7.773 11.733-12.232.443-.297.901-.594 1.373-.888l.001-.001.002-.001c.066-.041.125-.09.19-.133.22-.144.439-.29.643-.448.065-.05.122-.107.185-.159.196-.16.392-.32.574-.492.044-.042.081-.088.124-.13 2.781-2.737 3.759-6.9 2.457-10.583a9.925 9.925 0 00-.858-1.818 205.063 205.063 0 00-1.685-2.745c-11.226-18.013-30.421-42.744-60.179-63.411-26.818-18.624-57.322-30.642-91.051-35.918-28.364-25.693-77.723-54.838-154.068-51.882-6.424.249-12.22 3.414-15.902 8.684-3.678 5.266-4.654 11.79-2.679 17.9l17.655 54.609c-20.592 11.024-39.126 23.498-54.582 35.131a7.513 7.513 0 00-1.485 10.522 7.513 7.513 0 0010.523 1.485c30.509-22.962 73.399-49.362 119.803-59.857l.375-.084c1.668-.374 3.341-.725 5.017-1.057.349-.069.697-.134 1.045-.201a199.48 199.48 0 014.536-.821c.534-.089 1.066-.169 1.599-.253 1.359-.216 2.719-.427 4.083-.614.723-.098 1.441-.18 2.161-.269 1.194-.149 2.388-.301 3.585-.425.949-.099 1.891-.172 2.836-.255.983-.087 1.965-.184 2.949-.254 1.318-.093 2.628-.153 3.938-.214.624-.03 1.246-.076 1.87-.098 1.961-.07 3.912-.107 5.854-.107 1.554 0 3.106.014 4.654.041l.033.001c10.834.192 21.493 1.051 31.75 2.561l.023.001a220.596 220.596 0 0123.727 4.816c-15.03 29.006-23.536 67.435-23.536 107.189 0 8.367.371 16.773 1.101 24.984a7.515 7.515 0 0014.97-1.332 267.7 267.7 0 01-1.042-23.651c0-38.605 8.397-75.646 23.169-102.764 52.329 17.934 83.767 52.73 100.248 76.952l.588.868c.378.563.751 1.121 1.114 1.671.437.666.864 1.324 1.28 1.973.126.197.261.402.386.597-.643.474-1.262.95-1.859 1.428-8.955 7.163-12.832 14.623-14.426 18.836a11.25 11.25 0 003.078 12.381c.91.797 1.986 1.653 3.192 2.553 2.649 1.978 5.988 4.195 10.025 6.645-.124.195-.259.399-.385.597a190.02 190.02 0 01-2.992 4.53c-16.496 24.251-47.864 58.939-100.034 76.881-7.189-13.111-13.03-28.848-17.013-45.908a7.512 7.512 0 00-9.026-5.609 7.514 7.514 0 00-5.609 9.026c4.013 17.191 9.83 33.217 16.989 46.933a220.715 220.715 0 01-24.474 4.95l-.053.003c-10.045 1.454-20.473 2.284-31.063 2.478-.085.001-.168.005-.253.006-1.517.026-3.037.04-4.56.04-1.787 0-3.584-.039-5.387-.099-.344-.011-.689-.022-1.034-.036a167.97 167.97 0 01-5.535-.302l-.088-.007c-28.216-2.05-58.32-11.218-89.677-27.334-.077-.04-.159-.069-.237-.106-9.378-4.837-18.871-10.289-28.472-16.373-37.941-24.04-67.582-51.634-81.941-66.016l-.006-.007-.075-.075-.003-.003-.027-.027c-2.451-2.456-2.45-6.452.027-8.935l.079-.079.003-.003c5.517-5.527 14.433-14.134 25.766-23.959a7.515 7.515 0 10-9.844-11.355 521.857 521.857 0 00-21.833 20.035c-12.134-9.29-28.174-20.732-43.534-29.108-24.573-13.399-41.036-15.322-50.329-5.877-8.678 8.819-2.851 25.234 2.287 36.814 3.225 7.269 6.905 13.966 9.241 18.014-2.336 4.049-6.016 10.745-9.241 18.013-5.138 11.578-10.964 27.992-2.287 36.813 3.853 3.917 8.938 5.879 15.324 5.878 9.015 0 20.621-3.911 35.005-11.755 15.359-8.375 31.4-19.817 43.534-29.108 16.062 15.626 44.424 41.012 79.811 63.435a392.689 392.689 0 0024.22 14.184l-17.509 54.156c-1.975 6.11-.999 12.634 2.679 17.9 3.682 5.271 9.477 8.436 15.902 8.684 3.61.14 7.152.208 10.642.207 69.928-.002 115.857-27.323 142.829-51.545 34.067-5.243 64.855-17.343 91.888-36.172 29.747-20.721 48.909-45.485 60.108-63.516l.275-.443c.482-.78.954-1.551 1.405-2.304a10.028 10.028 0 001.115-7.718zM323.858 126.462l-1.078-.027a282.022 282.022 0 00-6.187-.075c-.559 0-1.116.024-1.674.029-1.451.014-2.901.026-4.361.076-.566.019-1.129.06-1.694.085-1.477.064-2.955.128-4.441.228-.163.011-.326.029-.489.041-27.942 1.959-57.418 10.329-87.903 24.987l-16.902-52.278a5.265 5.265 0 01.7-4.67 5.29 5.29 0 014.162-2.274c3.403-.131 6.739-.196 10.027-.196 52.293 0 90.079 16.233 115.922 34.291a276.515 276.515 0 00-6.082-.217zM15.264 300.618c-.204-.597-1.491-5.654 5.819-21.649 4.549-9.954 9.957-18.688 10.01-18.773a7.515 7.515 0 000-7.939c-.053-.086-5.397-8.706-9.953-18.65-7.37-16.086-6.08-21.172-5.875-21.773 2.855-2.624 12.957-1.92 32.314 8.635 14.418 7.862 29.645 18.711 41.281 27.607-.008.02-.013.041-.022.061-.157.384-.281.777-.414 1.168-.091.267-.198.53-.279.8-.12.404-.207.815-.303 1.225-.062.264-.141.525-.192.791-.085.438-.135.88-.193 1.321-.032.242-.081.483-.104.726a21.528 21.528 0 00-.077 2.521c.011.532.026 1.064.077 1.595.028.287.084.57.123.856.054.397.097.795.174 1.189.059.305.148.604.22.906.089.37.165.742.274 1.108.091.306.211.605.316.908.123.354.234.711.376 1.059.009.023.015.047.025.069-45.264 34.645-68.67 40.802-73.597 36.239zm188.727 118.794a5.29 5.29 0 01-4.162-2.274 5.265 5.265 0 01-.7-4.67l16.768-51.866c28.493 13.733 56.074 21.953 82.466 24.567l.35.035a187.814 187.814 0 0012.516.8c1.793.054 3.583.09 5.364.09 1.956 0 3.9-.027 5.839-.067.405-.009.808-.02 1.212-.03 1.792-.045 3.577-.105 5.353-.184.081-.004.163-.005.245-.008-27.4 18.944-68.158 35.814-125.251 33.607z"/>
  <path fill="currentColor" d="M412.407 178.712c-13.621 0-24.704 11.082-24.704 24.704s11.083 24.704 24.704 24.704c13.622 0 24.705-11.082 24.705-24.704 0-13.621-11.082-24.704-24.705-24.704zm0 34.379c-5.335 0-9.675-4.34-9.675-9.675 0-5.335 4.34-9.675 9.675-9.675 5.335 0 9.676 4.34 9.676 9.675 0 5.335-4.341 9.675-9.676 9.675z"/>
</svg>