<svg xmlns="http://www.w3.org/2000/svg" viewBox="0 0 512 512">
  <path d="M348.935 386.74h16.163a7.5 7.5 0 000-15h-16.163a7.5 7.5 0 000 15zM348.935 419.065h16.163a7.5 7.5 0 000-15h-16.163a7.5 7.5 0 000 15zM146.902 386.74h16.163a7.5 7.5 0 000-15h-16.163a7.5 7.5 0 000 15zM146.902 419.065h16.163a7.5 7.5 0 000-15h-16.163a7.5 7.5 0 000 15z"/>
  <path d="M377.22 451.39c15.275 0 27.703-12.428 27.703-27.703V241.858c0-15.276-12.428-27.704-27.703-27.704H134.78c-15.275 0-27.703 12.428-27.703 27.704v181.829c0 15.275 12.428 27.703 27.703 27.703zm-255.143-27.703V241.858c0-7.005 5.699-12.704 12.703-12.704h242.44c7.004 0 12.703 5.699 12.703 12.704v181.829c0 7.004-5.699 12.703-12.703 12.703H134.78c-7.004 0-12.703-5.699-12.703-12.703z"/>
  <path d="M441.87 396.62a7.5 7.5 0 00-7.5 7.5v39.77c0 29.285-23.825 53.11-53.11 53.11H130.74c-29.285 0-53.11-23.825-53.11-53.11V284.11a7.5 7.5 0 00-15 0v159.78c0 37.556 30.554 68.11 68.11 68.11h250.52c37.556 0 68.11-30.554 68.11-68.11v-39.77a7.5 7.5 0 00-7.5-7.5zM424.094 149.319l-.819-.98a15.525 15.525 0 007.902-7.131c3.244-6.091 2.144-13.461-2.735-18.341l-23.519-23.519V76.59c11.644-3.279 20.207-13.985 20.207-26.659V27.7c0-15.274-12.431-27.7-27.71-27.7h-39.63a7.5 7.5 0 000 15h39.63c7.008 0 12.71 5.697 12.71 12.7v22.23c0 7.002-5.702 12.7-12.71 12.7H114.58c-7.008 0-12.71-5.697-12.71-12.7V27.7c0-7.003 5.702-12.7 12.71-12.7h208.11a7.5 7.5 0 000-15H114.58C99.301 0 86.87 12.426 86.87 27.7v22.23c0 12.674 8.563 23.38 20.207 26.659v22.759l-23.519 23.519c-4.879 4.879-5.979 12.25-2.735 18.341a15.523 15.523 0 007.903 7.131l-.817.977c-16.302 19.474-25.279 44.2-25.279 69.624v30.09a7.5 7.5 0 0015 0v-30.09c0-21.91 7.735-43.217 21.784-60l10.121-12.105 7.063-1.382 45.027 8.81a7.463 7.463 0 002.88 0l45.028-8.81 45.027 8.81a7.463 7.463 0 002.88 0l45.027-8.81 45.028 8.81a7.508 7.508 0 002.88 0l45.027-8.81 7.063 1.382 10.124 12.109c14.046 16.779 21.781 38.086 21.781 59.996v150.08a7.5 7.5 0 0015 0V218.94c0-25.424-8.977-50.15-25.276-69.621zM122.077 94.955V77.63h267.846v17.325zm271.885 35.496l-45.027 8.81-45.028-8.81a7.508 7.508 0 00-2.88 0L256 139.26l-45.027-8.81a7.463 7.463 0 00-2.88 0l-45.028 8.81-45.027-8.81a7.463 7.463 0 00-2.88 0l-20.47 4.005c-.245.048-.422.082-.625-.297-.202-.38-.075-.508.102-.685l23.519-23.519h276.633l23.519 23.519c.177.177.304.305.102.685-.203.379-.379.345-.625.297l-20.47-4.005a7.487 7.487 0 00-2.881.001z"/>
  <path d="M221.13 399.574c6.977 0 14.293-.729 20.749-1.818 14.041-2.371 40.346-9.098 58.763-27.515 10.446-10.446 15.209-24.321 13.412-39.068a55.06 55.06 0 00-1.737-8.455c13.766-1.794 23.179-17.895 24.261-19.828a7.5 7.5 0 000-7.329c-1.064-1.9-10.178-17.488-23.563-19.723-2.232-13.395-17.826-22.502-19.726-23.565a7.504 7.504 0 00-7.323 0c-1.932 1.081-18.036 10.485-19.831 24.259a54.973 54.973 0 00-8.461-1.739c-14.747-1.801-28.622 2.966-39.068 13.412-18.417 18.417-25.144 44.722-27.515 58.763-2.764 16.368-3.202 38.27 4.658 46.129 4.761 4.76 14.67 6.477 25.381 6.477zm99.948-100.35c-3.19 4.286-7.735 8.664-11.246 8.664-1.554 0-3.543-.947-5.663-2.671a70.67 70.67 0 00-3.367-4.671c3.102-2.553 6.526-5.946 8.995-9.98l.035-.002c3.512-.002 8.059 4.38 11.246 8.66zm-40.112-20.203c0-3.517 4.381-8.064 8.662-11.248 4.286 3.188 8.664 7.733 8.664 11.248 0 .673-.171 1.411-.518 2.242-1.307 3.118-4.571 6.206-7.444 8.436a71.34 71.34 0 00-6.676-5.006c-1.735-2.125-2.688-4.119-2.688-5.672zm-74.848 69.096c2.151-11.94 8.012-34.222 23.095-49.306 16.214-16.213 39.994-9.4 55.106 5.71l.006.006.007.006c15.106 15.113 21.915 38.889 5.704 55.1-15.084 15.083-37.366 20.944-49.306 23.095-18.652 3.36-31.535 1.497-34.354-.258-1.754-2.818-3.618-15.701-.258-34.353z"/>
  <path d="M243.196 327.437a7.474 7.474 0 005.303-2.197l5.714-5.714a7.5 7.5 0 000-10.606 7.5 7.5 0 00-10.606 0l-5.714 5.714a7.5 7.5 0 000 10.606 7.472 7.472 0 005.303 2.197zM268.911 353.152a7.474 7.474 0 005.303-2.197l5.714-5.714a7.5 7.5 0 000-10.606 7.5 7.5 0 00-10.606 0l-5.714 5.714a7.5 7.5 0 005.303 12.803zM233.114 363.234a7.474 7.474 0 005.303-2.197l5.714-5.714a7.5 7.5 0 000-10.606 7.5 7.5 0 00-10.606 0l-5.714 5.714a7.5 7.5 0 005.303 12.803z"/>
</svg>