<svg xmlns="http://www.w3.org/2000/svg" viewBox="0 0 512 512">
  <path fill="currentColor" d="M382.913 27.974a7.993 7.993 0 00-4.973-3.735l-32-8a8 8 0 00-9.676 5.724l-11.213 42.6-.022.009.012.031-10.589 40.232a36.019 36.019 0 00-27.5-16.7 31.994 31.994 0 00-23.573-39.263 41.242 41.242 0 00-27.62-32.052l-1.231-.41-5.056 15.18 1.228.41a25.251 25.251 0 0116.375 17.277 31.994 31.994 0 00-22.025 38.854 36.035 36.035 0 00-32.573 41.755 35.969 35.969 0 00-21.006 18.679l14.45 6.87a19.98 19.98 0 0117.154-11.414 8 8 0 006.861-11.424A20.01 20.01 0 01228 104h6.868a31.91 31.91 0 0042.264 0H284a20 20 0 0119.6 24H232v16h76.7c.075.006.149.018.225.021a19.258 19.258 0 013.614.505A19.984 19.984 0 01327.594 168H160a8 8 0 00-8 8v10.97a172.3 172.3 0 0010.4 59.048l12.159 33.433A156.333 156.333 0 01184 333.03a171.693 171.693 0 0014.892 70.17l14.923 33.577-13.351 8.011A50.643 50.643 0 00176 488a8 8 0 008 8h144a8 8 0 008-8 50.644 50.644 0 00-24.463-43.208l-13.068-7.841 11.29-22.58A173.67 173.67 0 00328 337.1v-4.07a156.333 156.333 0 019.439-53.579l12.161-33.433A172.3 172.3 0 00360 186.97V176a8 8 0 00-8-8h-5.475l37.183-133.859a8 8 0 00-.795-6.167zM256 96a16 16 0 1116-16 16.019 16.019 0 01-16 16zm93.725-62.322L366.1 37.77l-3.243 11.673-19.309 7.724zm-.713 65.59L330.428 107l8.046-30.571 18.993-7.6zm-25.083 32.422l1.377-5.232 18.263-7.6-6.584 23.7a35.642 35.642 0 00-13.056-10.868zM200 333.03a172.3 172.3 0 00-10.4-59.048l-12.159-33.433A156.333 156.333 0 01168 186.97V184h176v2.97a156.662 156.662 0 01-2.408 27.4A40.014 40.014 0 00320 208a41.019 41.019 0 00-32.6 15.951 39.644 39.644 0 00-3.419-4.069 38.878 38.878 0 00-55.954 0 39.806 39.806 0 00-3.411 4.058A41.07 41.07 0 00192 208a40.083 40.083 0 00-9.994 1.261l3.988 15.494A24.118 24.118 0 01192 224a25.115 25.115 0 0125.138 23.427c0 .28 0 .558.009.838l6.082 170.3-9.716-21.863A155.8 155.8 0 01200 333.03zM272.28 432h-32.56l-6.583-184.306v-.01h.042c-.01-.28-.035-.555-.051-.832a22.875 22.875 0 1145.735.843zm46.764 48H192.956a34.577 34.577 0 0115.74-21.487L226.216 448h59.568l17.521 10.513A34.579 34.579 0 01319.044 480zm15.517-239.451L322.4 273.982A172.3 172.3 0 00312 333.03v4.07a157.586 157.586 0 01-16.552 70.115l-6.754 13.509 6.159-172.459A25.073 25.073 0 01320 224a24.083 24.083 0 0117.506 7.607q-1.339 4.503-2.945 8.942z"/>
</svg>