<svg xmlns="http://www.w3.org/2000/svg" viewBox="0 0 463 463">
  <path fill="currentColor" d="M439.5 224h-41.313l.567-17h8.746c4.142 0 7.5-3.357 7.5-7.5s-3.358-7.5-7.5-7.5h-25.223c-3.515-18.205-19.561-32-38.777-32s-35.262 13.795-38.777 32H124.118l261-57.67a7.5 7.5 0 10-3.236-14.646L264.22 145.682l-1.834-8.3c-2.795-12.652-15.361-20.674-28.017-17.876L187.5 129.862c-12.652 2.795-20.672 15.363-17.876 28.017l1.834 8.3-117.663 25.998a7.5 7.5 0 00-5.705 8.941c.702 3.179 3.329 5.416 6.384 5.804.245.034.493.055.745.064.063.002.124.016.188.016l.063-.003.03.002h8.746l.567 17H23.5C10.542 224 0 234.542 0 247.5S10.542 271 23.5 271h42.88l4.594 137.816C71.687 430.228 89.027 447 110.451 447h242.098c21.424 0 38.765-16.772 39.478-38.184L396.621 271H439.5c12.958 0 23.5-10.542 23.5-23.5S452.458 224 439.5 224zm-248.764-79.491l46.869-10.356c4.578-1.01 9.123 1.89 10.134 6.466l1.834 8.3-63.469 14.024-1.834-8.3c-1.011-4.576 1.89-9.123 6.466-10.134zM23.5 256c-4.687 0-8.5-3.813-8.5-8.5s3.813-8.5 8.5-8.5h41.813l.567 17H23.5zm320-81c10.894 0 20.146 7.149 23.321 17h-46.643c3.176-9.851 12.428-17 23.322-17zm9.049 257H110.451c-10.956 0-20.184-7.075-23.336-17h288.77c-3.152 9.925-12.38 17-23.336 17zm24.764-32H85.688l-6.434-193h304.492l-6.433 193zM439.5 256h-42.379l.567-17H439.5c4.687 0 8.5 3.813 8.5 8.5s-3.813 8.5-8.5 8.5z"/>
  <path fill="currentColor" d="M392 159.5c0 12.958 10.542 23.5 23.5 23.5s23.5-10.542 23.5-23.5-10.542-23.5-23.5-23.5-23.5 10.542-23.5 23.5zm23.5-8.5c4.687 0 8.5 3.813 8.5 8.5s-3.813 8.5-8.5 8.5-8.5-3.813-8.5-8.5 3.813-8.5 8.5-8.5zM375.5 103c12.958 0 23.5-10.542 23.5-23.5S388.458 56 375.5 56 352 66.542 352 79.5s10.542 23.5 23.5 23.5zm0-32c4.687 0 8.5 3.813 8.5 8.5s-3.813 8.5-8.5 8.5-8.5-3.813-8.5-8.5 3.813-8.5 8.5-8.5zM311.5 117.951c7.969 0 14.452-6.482 14.452-14.451s-6.483-14.451-14.452-14.451c-7.968 0-14.451 6.482-14.451 14.451s6.483 14.451 14.451 14.451zM339.5 39c6.341 0 11.5-5.159 11.5-11.5S345.841 16 339.5 16 328 21.159 328 27.5 333.159 39 339.5 39z"/>
</svg>