<svg viewBox="0 0 512.695 512.695" xmlns="http://www.w3.org/2000/svg">
  <path fill="currentColor" d="M482.001 76.351h-55.065l63.51-17.018c7.74-2.073 14.21-7.037 18.216-13.978 4.007-6.939 5.071-15.024 2.997-22.765s-7.038-14.21-13.978-18.216c-6.94-4.007-15.025-5.07-22.765-2.997L195.115 76.351H152.47c-16.542 0-30 13.458-30 30s13.458 30 30 30H160v78.808a90.081 90.081 0 00-10.028 7.775c-15.931-14.266-36.955-22.956-59.972-22.956-49.626 0-90 40.374-90 90 0 42.333 12.866 82.925 37.208 117.386 22.446 31.777 53.007 56.188 88.699 70.928v24.06c0 5.522 4.477 10 10 10H271.52c5.523 0 10-4.478 10-10v-24.061c20.537-8.485 39.445-20.228 56.288-34.966 4.157-3.637 4.578-9.954.941-14.11-3.638-4.156-9.955-4.577-14.111-.94-16.782 14.685-35.831 26.069-56.619 33.839a9.999 9.999 0 00-6.499 9.367v20.871H145.906V471.48a9.999 9.999 0 00-6.499-9.367c-34.703-12.971-64.395-35.893-85.864-66.287-20.021-28.346-31.431-61.296-33.277-95.848H387.16c-1.09 20.459-5.533 40.36-13.249 59.29-2.084 5.114.372 10.95 5.486 13.035 5.115 2.085 10.95-.372 13.035-5.486 9.949-24.409 14.994-50.262 14.994-76.839 0-49.626-40.374-90-90-90-19.478 0-38.273 6.272-53.746 17.805a89.616 89.616 0 00-3.68-2.601v-78.831h222.001c16.542 0 30-13.458 30-30s-13.458-30-30-30zM61.72 279.978c4.128-11.639 15.243-20 28.28-20s24.152 8.361 28.28 20zm77.274 0c-4.646-22.795-24.847-40-48.994-40s-44.348 17.205-48.994 40h-20.28c4.869-33.876 34.072-60 69.274-60s64.406 26.124 69.274 60zM220 96.351h20v108.775a89.28 89.28 0 00-20-4.589zm-40 0h20V200.54a90.004 90.004 0 00-20 4.596zm-20 20h-7.53c-5.514 0-10-4.486-10-10s4.486-10 10-10H160zm21.72 163.627c4.128-11.639 15.243-20 28.28-20s24.152 8.361 28.28 20zm117.721 0a89.358 89.358 0 00-2.211-12.183c5.487-5.011 12.623-7.817 20.195-7.817 13.036 0 24.152 8.361 28.28 20zm17.985-60c35.202 0 64.406 26.124 69.274 60h-20.28c-4.646-22.795-24.847-40-48.994-40-10.02 0-19.574 2.958-27.664 8.347a90.335 90.335 0 00-11.192-16.571 69.867 69.867 0 0138.856-11.776zm-38.152 60h-20.28c-4.646-22.795-24.847-40-48.994-40-14.471 0-27.519 6.186-36.657 16.044a89.921 89.921 0 00-10.023-18.182c12.771-11.426 29.373-17.862 46.68-17.862 35.202 0 64.406 26.124 69.274 60zM480.095 20.697a9.919 9.919 0 017.587.999 9.933 9.933 0 014.659 6.071c.691 2.581.336 5.275-.999 7.589s-3.492 3.968-6.072 4.659L349.663 76.351H272.39zm1.906 95.654H260v-20h222.001c5.514 0 10 4.486 10 10s-4.486 10-10 10z"/>
  <circle cx="361.431" cy="402.449" r="10" fill="currentColor" />
</svg>