<svg fill="none" xmlns="http://www.w3.org/2000/svg" viewBox="0 0 46 44">
  <ellipse cx="22.719" cy="22" rx="22.719" ry="22" fill="#FCFCFC"/>
  <path d="M12.09 28.37a1.557 1.557 0 01-.15-.667v-.476a37.49 37.49 0 011.965-11.977h8.833a38.646 38.646 0 00-.955 3.431l.787.17a37.9 37.9 0 011.017-3.601h.86c.427 0 .837-.165 1.14-.458a1.54 1.54 0 00.473-1.104v-1.172a.38.38 0 00-.118-.277.406.406 0 00-.286-.114H23.64c0-.414.17-.811.473-1.104a1.642 1.642 0 011.14-.459h.074c.354.001.697.114.979.322.28.208.484.5.578.83l.593 2.108c.14.5.273 1.01.393 1.516l.787-.175a38.625 38.625 0 00-.401-1.547l-.594-2.108a2.347 2.347 0 00-.867-1.244 2.477 2.477 0 00-1.468-.483H14.36c-.641 0-1.257.248-1.71.688a2.31 2.31 0 00-.71 1.656v1.563c0 .333.111.659.316.927.205.269.493.467.823.566a38.24 38.24 0 00-1.946 12.046v.476c0 .341.075.68.222.99l.734-.324zm13.163-15.464v.781a.769.769 0 01-.236.553.82.82 0 01-.57.229.82.82 0 01-.571-.23.769.769 0 01-.237-.552v-.78h1.614zm-12.505.781v-1.562c0-.414.17-.811.473-1.104a1.642 1.642 0 011.14-.459h9.09a2.293 2.293 0 00-.619 1.563v1.563c0 .274.075.543.217.78h-9.494a.822.822 0 01-.57-.228.77.77 0 01-.237-.553z" fill="#333"/>
  <path d="M31.395 20.157l-.184.76c2.45.555 3.32 1.292 3.32 1.755 0 .398-.584.86-1.661 1.267-.189-.581-.947-1.061-2.261-1.43l-.225.75c1.12.314 1.664.694 1.72.935-1.602.472-3.942.822-6.852.822s-5.25-.35-6.852-.822c.08-.369 1.23-.995 3.68-1.323l-.11-.773c-1.229.164-2.273.418-3.02.736-.737.313-1.177.684-1.315 1.105-1.078-.408-1.66-.87-1.66-1.267 0-.165.138-.75 1.921-1.364 1.359-.468 3.264-.795 5.364-.921l-.05-.78c-2.173.13-4.157.473-5.584.965-2.032.7-2.459 1.528-2.459 2.1 0 .823.158 1.639.466 2.406l.817 2.032.752-.283-.817-2.033a5.742 5.742 0 01-.23-.703c.517.335 1.233.634 2.139.89 1.864.526 4.335.816 6.958.816s5.095-.29 6.959-.817c.906-.255 1.622-.554 2.139-.89a5.742 5.742 0 01-.231.704l-1.385 3.45a3.484 3.484 0 01-.537.907l.633.485c.274-.336.496-.71.656-1.11l1.385-3.448a6.428 6.428 0 00.466-2.406c0-1.412-2.47-2.182-3.942-2.515z" fill="#333"/>
  <path d="M28.193 17.134c-1.982.697-3.613 2.101-4.561 3.925l-1.16 2.248.72.35 1.162-2.248a7.373 7.373 0 013.815-3.43c.02.077.046.151.078.224-1.113.907-2.113 2.143-2.838 3.517l-1.188 2.234.718.357 1.188-2.235c.673-1.274 1.595-2.419 2.618-3.258a1.578 1.578 0 00.307.175l-.506.915c-.44.795-.893 1.619-1.36 2.473l-.914 1.67.713.366.915-1.672c.464-.854.917-1.677 1.358-2.469l.598-1.082a6.946 6.946 0 01-.892 3.848l-.566 1.005.708.375.567-1.006c.791-1.4 1.127-3 .963-4.588.164-.117.303-.264.41-.432l3.21-5.088c.218-.346.286-.762.188-1.156a1.533 1.533 0 00-.712-.946 1.624 1.624 0 00-1.194-.181 1.578 1.578 0 00-.977.688l-3.21 5.088a1.518 1.518 0 00-.158.333zm.845.074l3.211-5.087a.758.758 0 01.478-.338.798.798 0 01.585.089.762.762 0 01.348.463.724.724 0 01-.092.566l-3.211 5.088a.756.756 0 01-.478.337.796.796 0 01-.585-.088.763.763 0 01-.348-.464.725.725 0 01.092-.566zM31.215 29.406a1.56 1.56 0 00-1.154-.377l-.38.034a2.785 2.785 0 00-1.029-.962 2.896 2.896 0 00-1.383-.351H15.571c-.485 0-.961.121-1.384.35-.422.23-.776.562-1.028.963l-.38-.033a1.556 1.556 0 00-1.129.354c-.153.13-.278.288-.367.466a1.423 1.423 0 00.269 1.644c.14.143.31.256.498.334a1.55 1.55 0 00.729.111l.38-.033c.253.4.607.73 1.03.96.422.23.898.351 1.382.353h11.698c.371 0 .739-.07 1.081-.207a2.81 2.81 0 001.332-1.106l.38.033a1.543 1.543 0 00.989-.25 1.47 1.47 0 00.554-.677c.11-.274.131-.575.062-.861a1.451 1.451 0 00-.452-.745zm-18.51 1.755a.725.725 0 01-.524-.164.684.684 0 01-.24-.48.66.66 0 01.193-.501.702.702 0 01.572-.208l2.428.213c.12.01.23.064.311.15a.457.457 0 010 .627.486.486 0 01-.31.15l-2.43.213zm1.4.662l1.102-.098c.32-.028.617-.17.834-.4.217-.23.337-.53.337-.84 0-.312-.12-.611-.337-.84a1.302 1.302 0 00-.834-.402l-1.105-.097.043-.043a2.03 2.03 0 01.84-.488 2.08 2.08 0 01.98-.046c.325.063.63.202.886.406.256.203.456.465.583.762a1.897 1.897 0 01-.186 1.833 1.996 1.996 0 01-.726.637 2.07 2.07 0 01-1.75.069 2.032 2.032 0 01-.668-.454zm14.59.043a2.006 2.006 0 01-.654.424 2.059 2.059 0 01-.772.148h-9.725c.27-.255.483-.558.63-.894a2.655 2.655 0 000-2.12 2.727 2.727 0 00-.63-.893h9.725c.4 0 .79.115 1.12.33.332.214.591.52.744.876.152.357.192.75.114 1.129-.078.378-.27.726-.552 1zm1.504-.702a.769.769 0 01-.065-.003l-.125-.01a2.667 2.667 0 00-.001-1.332l.126-.011a.725.725 0 01.525.164.68.68 0 01.24.48.66.66 0 01-.193.501.704.704 0 01-.507.211z" fill="#333"/>
</svg>