<svg xmlns="http://www.w3.org/2000/svg" viewBox="0 0 64 64">
  <path fill="currentColor" d="M57.351 28.063a9.209 9.209 0 00-2.657-.5c-.18-.014-.4-.03-.578-.052.089-.118.193-.248.28-.358a7.093 7.093 0 001.579-2.928c.58-2.533.709-7.3-2.486-9.1a5.825 5.825 0 00-4.607-.389 8.2 8.2 0 00-4.77 3.8c-1.138 2.2-.528 4.437-.037 6.234.3 1.112.59 2.162.231 2.5-.417.4-1.661.065-2.865-.264-.377-.1-.764-.2-1.152-.3A8.007 8.007 0 0033 22h-.082a9.293 9.293 0 00-.568-2.22c-1.994-5.063-7.593-7.623-11.266-6.532a6 6 0 00-2.719 1.766 10.015 10.015 0 00-3.108-2.884 11.494 11.494 0 00-9.159-.7 6.042 6.042 0 00-3.848 3.2c-.933 2.362.8 5.043 3.95 9.91.336.52.687 1.029 1.035 1.541a18.192 18.192 0 00-2.413 1.1 5.252 5.252 0 00-2.449 2.449A9.9 9.9 0 002 33a29.033 29.033 0 0029 29h2a29.033 29.033 0 0029-29 1.784 1.784 0 00-.108-.452 8.659 8.659 0 00-4.541-4.485zm-16.429.884c1.741.472 3.539.96 4.77-.225 1.215-1.164.756-2.846.312-4.473s-.895-3.283-.116-4.789a6.2 6.2 0 013.567-2.8 3.919 3.919 0 013.054.216c2.013 1.134 2.01 4.751 1.516 6.906a5.256 5.256 0 01-1.189 2.118c-.548.685-1.23 1.536-.731 2.546.482.963 1.523 1.041 2.441 1.109a7.322 7.322 0 012.1.38A5.77 5.77 0 0159.215 32H49.2a76.54 76.54 0 01.775-3.771 75.651 75.651 0 011.973-6.909l-1.894-.64a77.64 77.64 0 00-2.027 7.091A77.96 77.96 0 0047.168 32h-6.43a7.541 7.541 0 00.184-3.053zM34 26v-1.91a6.01 6.01 0 014.766 4.268l-2.082.694.632 1.9 1.663-.554A5.826 5.826 0 0138.654 32H27.346A5.886 5.886 0 0127 30a6.026 6.026 0 01.031-.6l1.653.551.632-1.9-1.748-.583A6.01 6.01 0 0132 24.09V26zM21.655 15.169c2.726-.812 7.276 1.393 8.835 5.349a7.294 7.294 0 01.449 1.761 7.959 7.959 0 00-5.688 9.682l-.083.039h-4.612c.428-.445.847-.9 1.228-1.38a20.483 20.483 0 004.21-10.511l-1.988-.218a18.6 18.6 0 01-3.79 9.489c-.056.071-.124.133-.181.2a17 17 0 00-.582-12.747 4.346 4.346 0 012.202-1.664zm-17.544.2a4.2 4.2 0 012.646-2.044 9.56 9.56 0 017.5.543c4.784 2.762 5.878 10.721 3.627 15.724-.079.176-.172.338-.262.5a27.489 27.489 0 00-.674-2.409 29.153 29.153 0 00-8.277-12.424l-1.342 1.482a27.189 27.189 0 017.723 11.576A25.744 25.744 0 0115.979 32H14.25a79.677 79.677 0 01-6.371-8.543c-2.841-4.393-4.299-6.747-3.768-8.09zM4.2 30.437a3.164 3.164 0 011.575-1.5 15.985 15.985 0 012.643-1.154Q9.975 29.952 11.653 32h-7.6a2.727 2.727 0 01.147-1.563zM33 60h-2A27.032 27.032 0 014.018 34h55.964A27.032 27.032 0 0133 60z"/>
  <path fill="currentColor" d="M32 28h2v2h-2zM34 14v2a1 1 0 001 1h4a9.01 9.01 0 009-9V6a1 1 0 00-1-1h-4a9.01 9.01 0 00-9 9zm9-7h3v1a7.008 7.008 0 01-7 7h-1.3l4.948-4.241-1.3-1.518-5.34 4.577A7 7 0 0143 7zM25 8a3 3 0 103-3 3 3 0 00-3 3zm4 0a1 1 0 11-1-1 1 1 0 011 1zM12 5a3 3 0 103-3 3 3 0 00-3 3zm4 0a1 1 0 11-1-1 1 1 0 011 1zM10.855 43.481l-1.71 1.038A27.157 27.157 0 0020.565 54.9l.87-1.8a25.172 25.172 0 01-10.58-9.619zM23 54h2v2h-2z"/>
</svg>