<svg xmlns="http://www.w3.org/2000/svg" viewBox="0 0 511.998 511.998">
  <path fill="currentColor" d="M190.498 407.248a198.997 198.997 0 01-96.208-70.879 8.535 8.535 0 00-14.746 1.465 8.532 8.532 0 00.904 8.518 216.169 216.169 0 00104.516 77.037 8.532 8.532 0 0010.822-5.31 8.529 8.529 0 00-5.288-10.831zM69.065 287.464a8.534 8.534 0 00-16.175 5.445 200.233 200.233 0 006.958 17.771 8.534 8.534 0 0015.575-6.979 182.045 182.045 0 01-6.358-16.237zM294.199 106.664a50.497 50.497 0 0015.008 35.9 8.533 8.533 0 0012.067-12.067 33.383 33.383 0 010-47.666c20.546-20.546 10.938-52.329-8.533-71.8a8.533 8.533 0 00-12.067 12.067c13.621 13.621 21.242 34.958 8.533 47.667a50.489 50.489 0 00-15.008 35.899zM200.332 149.331a50.497 50.497 0 0015.008 35.9 8.533 8.533 0 0012.067-12.067 33.383 33.383 0 010-47.666c20.546-20.546 10.938-52.329-8.533-71.8a8.533 8.533 0 00-12.067 12.067c13.621 13.621 21.242 34.958 8.533 47.667a50.493 50.493 0 00-15.008 35.899zM110.932 98.131a50.497 50.497 0 0015.008 35.9 8.533 8.533 0 1012.066-12.066 33.383 33.383 0 010-47.666c20.546-20.546 10.938-52.329-8.533-71.8a8.533 8.533 0 00-12.067 12.067c13.621 13.621 21.242 34.958 8.533 47.667a50.492 50.492 0 00-15.007 35.898z"/>
  <path fill="currentColor" d="M410.793 210.901c1.668-36.455 5.668-85.509 15.264-109.491 11.779-29.458 47.462-50.862 62.258-58.696 10.686-5.734 14.979-18.854 9.75-29.795-5.229-10.942-18.134-15.843-29.308-11.129a190.189 190.189 0 00-83.325 66.116c-21.817 32.723-30.247 95.114-33.508 139.086-30.576-1.432-62.748-2.194-95.925-2.194a1683.24 1683.24 0 00-169.846 7.538c-71.629 7.667-77.621 17.342-77.621 26.596 0 .198.023.397.029.595l-.009.001.027.371c.016.313.03.625.067.94.145 2.009.436 5.931.681 8.69a235.467 235.467 0 0084.538 160.799V460.8c0 33.613 81.563 51.2 162.133 51.2s162.133-17.587 162.133-51.2v-45.946a222.795 222.795 0 0085.163-167.387c0-.707.083-4.548.132-6.758.035-.61.039-1.203.039-1.775 0-7.464-.027-19.806-92.672-28.033zm69.26 28.017a359.946 359.946 0 01-70.405 11.034c.06-4.928.192-12.569.487-21.978a354.14 354.14 0 0169.918 10.944zm-111.599-22.575l.003-.012-.002-.011c2.706-42.338 10.231-107.531 31.176-138.947a172.986 172.986 0 0175.759-59.858 5.637 5.637 0 014.938 10.117c-20.446 10.825-56.738 33.983-70.121 67.438-15.697 39.247-17.455 133.942-17.65 156.267-8.184.627-16.716 1.19-25.596 1.69.077-5.689.377-19.217 1.493-36.684zm-112.455 5.521c32.814 0 64.623.752 94.849 2.161-.758 14.483-.934 25.31-.972 29.811-30.576 1.38-62.039 2.161-93.878 2.161-119.942 0-200.487-9.079-224.704-17.067 24.217-7.986 104.763-17.066 224.705-17.066zm145.066 238.934c0 11.583-51.204 34.133-145.067 34.133s-145.067-22.55-145.067-34.133v-37.346a251.975 251.975 0 00145.067 45.88 262.361 262.361 0 00145.067-42.091v33.557zm3.981-57.466a8.39 8.39 0 00-1.681 1.295 242.924 242.924 0 01-147.366 47.637c-116.888 0-215.973-85.962-228.897-197.034a317.622 317.622 0 0059.052 10.296A1683.532 1683.532 0 00256 273.063c34.988 0 69.667-.837 103.083-2.487 15.2-.767 29.654-1.721 42.938-2.833a409.418 409.418 0 0083.705-12.668 205.629 205.629 0 01-80.68 148.257z"/>
</svg>