<svg xmlns="http://www.w3.org/2000/svg" viewBox="0 0 512 512">
  <path fill="currentColor" d="M368.86 80H496V64H368.86a24.014 24.014 0 01-12.345-3.421l-24.8-14.88a40.013 40.013 0 00-19.776-5.672 25.284 25.284 0 00-10.733-20.019 22.592 22.592 0 00-17.835-3.456 23.113 23.113 0 00-10.98 5.913 23.977 23.977 0 00-32.375-.348A24.006 24.006 0 00200 40h-24a8 8 0 00-5.657 2.343l-16 16a8 8 0 000 11.314L164.687 80l-10.344 10.343a8 8 0 000 11.314L164.687 112l-10.344 10.343a8 8 0 000 11.314l16 16A8 8 0 00176 152h24.064a25.281 25.281 0 0010.736 19.992 22.556 22.556 0 0017.836 3.456 23.21 23.21 0 003.364-1.032V242a119.372 119.372 0 00-16 8.511V248h-16v14.608a120.68 120.68 0 00-19.4 22.2 87.816 87.816 0 00-88.628 18.846l10.917 11.7A72.054 72.054 0 01120 303.5v.5h16v-6.2a71.949 71.949 0 0165.911 18.323 111.967 111.967 0 00-17.256 6.389 55.993 55.993 0 00-79.522 14.828 87.593 87.593 0 00-20.984 6.529 71.833 71.833 0 0110.215-19.028l-12.8-9.6a87.76 87.76 0 00-16.73 40.6A87.812 87.812 0 0035.742 400H24a8 8 0 00-8 8 88.1 88.1 0 0088 88h248v-16H104a72.108 72.108 0 01-71.559-64H296v32a24 24 0 0048 0 8 8 0 0116 0v24a24 24 0 0048 0v-56h71.563a71.75 71.75 0 01-63.991 63.607l1.66 15.914A87.747 87.747 0 00496 408a8 8 0 00-8-8h-43.315A88.3 88.3 0 00360 336a87.347 87.347 0 00-45.279 12.532 112.46 112.46 0 00-9.488-9.273c-.815-.705-1.653-1.376-2.486-2.055A104.038 104.038 0 01392 325.027V336h16v-4.278A103.942 103.942 0 01442 360h-2v16h12.29a104.488 104.488 0 016.307 14.84l15.166-5.1a119.862 119.862 0 00-82-77.467 120.206 120.206 0 00-65.4-66.989l-6.183 14.757A103.87 103.87 0 01336 264.35V280h16v-3.061a104.174 104.174 0 0120.633 27.743A120.958 120.958 0 00360 304c-2.051 0-4.1.07-6.138.175A88.3 88.3 0 00312 270.061V200h8v-16h-8v-32.029a40.014 40.014 0 0019.716-5.671l6.38-3.829.17-.1.125-.075 18.124-10.876A24.014 24.014 0 01368.86 128H496v-16H368.86a40.021 40.021 0 00-20.574 5.7l-24.8 14.88A24.014 24.014 0 01311.14 136H280v-16h24v-16h-24v-1.481L288.517 88H304V72h-6.1l9.385-16h3.852a24.009 24.009 0 0112.34 3.418L348.286 74.3A40.021 40.021 0 00368.86 80zM256 32a8.043 8.043 0 017.143 4.39L248 62.205V40a8.009 8.009 0 018-8zm-32 0a8.047 8.047 0 018 8v49.481l-16 27.276V72h8V56h-8V40a8.009 8.009 0 018-8zm-44.687 24H200v16h-20.686l-8-8zm0 32H200v16h-20.686l-8-8zm-8 40l8-8H200v16h-20.687zm53.81 31.837a6.64 6.64 0 01-5.316-1.066c-3.835-2.614-4.969-8.411-2.478-12.658l64.64-110.194c2.07-3.528 6.72-5.08 10.224-2.69 3.835 2.614 4.969 8.411 2.478 12.658l-64.641 110.2a7.7 7.7 0 01-4.907 3.75zM264 304.67v12.03a112.082 112.082 0 00-16-3.529V232h8v-16h-8v-58.929l16-27.276zm-43.616 7.958c-.121-.149-.239-.3-.361-.449A72.145 72.145 0 01232 298.338V312a111.945 111.945 0 00-11.616.628zM232 259.741v18.5a88.27 88.27 0 00-23.434 22.382 88.4 88.4 0 00-13.157-9.126A104.817 104.817 0 01232 259.741zm-63.323 71.907a111.474 111.474 0 00-9.91 7.611 112.858 112.858 0 00-4.05 3.693 86.556 86.556 0 00-27.084-6.658 39.942 39.942 0 0141.044-4.646zM120.4 352a71.483 71.483 0 0122.87 3.7 112.217 112.217 0 00-9.226 13.988 55.794 55.794 0 00-30.044.784V360H88v16h3.591a56.017 56.017 0 00-21.773 24h-17.3a72.243 72.243 0 0167.882-48zm-31.988 48a39.947 39.947 0 0138.762-15.419A111.178 111.178 0 00122.609 400zM256 376v-11.371A64.317 64.317 0 01291.31 400h-17.742a48 48 0 00-83.136 0H172.69a64.451 64.451 0 0119.124-25.8A63.239 63.239 0 01232 360a65.621 65.621 0 018 .491V376zm-45.163 24a31.992 31.992 0 0142.326 0zM392 472a8 8 0 01-16 0v-24a24 24 0 00-48 0 8 8 0 01-16 0v-32h80zm-53.257-81.884A40 40 0 01392 400h-50.609q-1.098-5.013-2.648-9.884zM360 352a71.58 71.58 0 018 .464V360h16v-3.85A72.35 72.35 0 01427.894 400h-17.3a55.97 55.97 0 00-77.843-24.91 112.215 112.215 0 00-8.007-13.881A71.479 71.479 0 01360 352zm-35.027 48h-16.664a79.995 79.995 0 00-152.618 0h-16.664a96.157 96.157 0 0130.206-48.64q3.273-2.831 6.767-5.339V352h16v-15.251A96.016 96.016 0 01324.973 400zM280 322.808v-10.8a40.282 40.282 0 0110.017 1.254 39.393 39.393 0 019.983 4.087c.786.453 1.553.946 2.311 1.457a119.187 119.187 0 00-13.553 8.643q-4.279-2.517-8.758-4.641zm55.79-16.308a120.627 120.627 0 00-17.217 4.914 55.486 55.486 0 00-2.048-1.861A55.762 55.762 0 00280 296v-16a72.205 72.205 0 0155.79 26.5zM296 152v113.487A87.519 87.519 0 00280 264V152z"/>
  <path fill="currentColor" d="M120 432h16v16h-16zM432 432h16v16h-16zM152 448h16v16h-16zM328 80h16v16h-16z"/>
</svg>