<svg xmlns="http://www.w3.org/2000/svg" viewBox="0 0 470.001 470.001">
  <path d="M202.029 149.875a7.5 7.5 0 1010.608 10.607c12.329-12.332 32.395-12.332 44.729 0a7.5 7.5 0 0010.606-.001 7.498 7.498 0 00-.001-10.606c-18.18-18.18-47.763-18.18-65.942 0zM180.816 171.088l-30.941 30.941a7.5 7.5 0 1010.608 10.607l30.941-30.941a7.5 7.5 0 10-10.608-10.607z"/>
  <path d="M467.804 142.013c-7.478-7.477-9.228-12.783-11.254-18.926-2.293-6.954-4.893-14.836-14.892-24.836-10-9.999-17.882-12.599-24.836-14.893-6.144-2.025-11.449-3.775-18.927-11.254-7.479-7.478-9.229-12.783-11.254-18.927-2.294-6.954-4.894-14.836-14.893-24.836-10-9.999-17.882-12.599-24.836-14.892-6.143-2.026-11.449-3.776-18.926-11.254a7.5 7.5 0 00-11.849 1.641c-1.523 2.723-33.486 60.706-29.936 122.003-14.084-12.68-32.109-19.622-51.203-19.622-20.468 0-39.711 7.971-54.185 22.443l-52.154 52.154c-28.904 28.905-29.842 75.341-2.821 105.388C64.539 282.657 6.56 314.616 3.837 316.139a7.5 7.5 0 00-1.641 11.849c7.478 7.477 9.228 12.783 11.254 18.926 2.293 6.954 4.893 14.836 14.892 24.836 10 9.999 17.882 12.599 24.836 14.893 6.144 2.025 11.449 3.775 18.927 11.254 7.479 7.478 9.229 12.783 11.254 18.927 2.294 6.954 4.894 14.836 14.893 24.836 10 9.999 17.882 12.599 24.836 14.892 6.143 2.026 11.449 3.776 18.926 11.254a7.502 7.502 0 0011.849-1.641c1.524-2.723 33.486-60.706 29.936-122.003 14.084 12.68 32.109 19.622 51.203 19.622 20.468 0 39.711-7.971 54.185-22.443l52.154-52.154c28.906-28.907 29.842-75.35 2.814-105.397 3.222.187 6.437.288 9.633.288 57.611 0 109.797-28.771 112.377-30.214a7.499 7.499 0 003.766-5.517 7.51 7.51 0 00-2.127-6.334zM330.732 278.578l-52.154 52.154c-11.64 11.641-27.115 18.051-43.577 18.051s-31.938-6.41-43.577-18.051l-52.154-52.154c-24.029-24.028-24.029-63.126 0-87.154l52.154-52.154c11.64-11.641 27.115-18.051 43.577-18.051s31.938 6.41 43.577 18.051l52.154 52.154c24.029 24.028 24.029 63.125 0 87.154zM127.784 442.305c-6.143-2.026-11.449-3.776-18.926-11.254-7.479-7.478-9.229-12.783-11.254-18.927-2.294-6.954-4.894-14.836-14.893-24.836-10-9.999-17.882-12.599-24.836-14.893-6.144-2.025-11.449-3.775-18.927-11.254-7.478-7.477-9.228-12.783-11.254-18.926-1.672-5.069-3.507-10.632-8.251-17.148 19.888-9.413 72.316-30.825 121.584-22.002-6.222 2.751-12.992 6.201-20.279 10.36a7.498 7.498 0 00-2.796 10.231 7.495 7.495 0 0010.232 2.796c9.576-5.465 18.086-9.589 25.406-12.338l2.301 2.301c-9.349 24.894-32.536 57.668-46.018 75.595a7.5 7.5 0 0011.988 9.016c15.388-20.461 34.544-48.196 45.078-72.03 8.814 49.264-12.598 101.681-22.007 121.56-6.516-4.744-12.078-6.579-17.148-8.251zm201.214-275.364c23.832-10.534 51.563-29.686 72.021-45.072 3.311-2.49 3.976-7.191 1.486-10.502s-7.191-3.977-10.502-1.486c-17.924 13.48-50.693 36.665-75.587 46.013l-2.307-2.307c9.349-24.894 32.536-57.668 46.019-75.595a7.5 7.5 0 00-11.988-9.016c-15.389 20.462-34.545 48.197-45.079 72.031-8.816-49.265 12.597-101.683 22.007-121.563 6.517 4.744 12.079 6.579 17.148 8.251 6.143 2.026 11.449 3.776 18.926 11.254 7.479 7.478 9.229 12.783 11.254 18.927 2.294 6.954 4.894 14.836 14.893 24.836 10 9.999 17.882 12.599 24.836 14.893 6.144 2.025 11.449 3.775 18.927 11.254 7.478 7.477 9.228 12.783 11.254 18.926 1.672 5.069 3.507 10.632 8.251 17.148-19.886 9.411-72.3 30.819-121.559 22.008z"/>
  <path d="M94.84 329.656c-8.358 5.643-17.059 11.859-25.857 18.478a7.5 7.5 0 004.514 13.494c1.569 0 3.151-.49 4.502-1.506 8.597-6.466 17.087-12.533 25.234-18.034a7.498 7.498 0 002.02-10.412 7.499 7.499 0 00-10.413-2.02z"/>
</svg>